HIERARCHY
ROOT Hips
{
	OFFSET 53.644402 -1.666544 84.670303
	CHANNELS 6 Xposition Yposition Zposition Xrotation Yrotation Zrotation
	JOINT spine
	{
		OFFSET 0.000000 -0.342408 5.954376
		CHANNELS 3 Xrotation Yrotation Zrotation
		JOINT spine1
		{
			OFFSET 0.000000 -0.000001 8.856018
			CHANNELS 3 Xrotation Yrotation Zrotation
			JOINT spine2
			{
				OFFSET 0.000000 -0.000001 8.485672
				CHANNELS 3 Xrotation Yrotation Zrotation
				JOINT Neck
				{
					OFFSET 0.000000 -1.038704 21.786301
					CHANNELS 3 Xrotation Yrotation Zrotation
					JOINT Head
					{
						OFFSET 0.000000 -0.000001 6.582199
						CHANNELS 3 Xrotation Yrotation Zrotation
						End Site
						{
							OFFSET 0.000000 5.254357 15.932602
						}
					}
				}
				JOINT RightShoulder
				{
					OFFSET -3.573071 0.497524 9.163864
					CHANNELS 3 Xrotation Yrotation Zrotation
					JOINT RightArm
					{
						OFFSET 0.000000 -0.000002 12.019196
						CHANNELS 3 Xrotation Yrotation Zrotation
						JOINT RightArmRoll
						{
							OFFSET 0.000000 -0.000001 6.067551
							CHANNELS 3 Xrotation Yrotation Zrotation
							JOINT RightForeArm
							{
								OFFSET 0.000000 -0.000003 17.672607
								CHANNELS 3 Xrotation Yrotation Zrotation
								JOINT RightForeArmRoll
								{
									OFFSET 0.000000 -0.000001 6.808716
									CHANNELS 3 Xrotation Yrotation Zrotation
									JOINT RightHand
									{
										OFFSET 0.000000 -0.000002 13.663605
										CHANNELS 3 Xrotation Yrotation Zrotation
										End Site
										{
											OFFSET 0.000000 0.000000 0.100006
										}
									}
								}
							}
						}
					}
				}
				JOINT LeftShoulder
				{
					OFFSET 3.573071 0.497524 9.163864
					CHANNELS 3 Xrotation Yrotation Zrotation
					JOINT LeftArm
					{
						OFFSET 0.000000 -0.000002 12.019196
						CHANNELS 3 Xrotation Yrotation Zrotation
						JOINT LeftArmRoll
						{
							OFFSET 0.000000 -0.000001 6.067551
							CHANNELS 3 Xrotation Yrotation Zrotation
							JOINT LeftForeArm
							{
								OFFSET 0.000000 -0.000003 17.672607
								CHANNELS 3 Xrotation Yrotation Zrotation
								JOINT LeftForeArmRoll
								{
									OFFSET 0.000000 -0.000001 6.808716
									CHANNELS 3 Xrotation Yrotation Zrotation
									JOINT LeftHand
									{
										OFFSET 0.000000 -0.000002 13.663605
										CHANNELS 3 Xrotation Yrotation Zrotation
										End Site
										{
											OFFSET 0.000000 0.000000 0.100006
										}
									}
								}
							}
						}
					}
				}
			}
		}
	}
	JOINT RightUpLeg
	{
		OFFSET -5.277740 0.811858 -0.967796
		CHANNELS 3 Xrotation Yrotation Zrotation
		JOINT RightUpLegRoll
		{
			OFFSET 0.000000 -0.000003 16.021400
			CHANNELS 3 Xrotation Yrotation Zrotation
			JOINT RightLeg
			{
				OFFSET 0.000000 0.000003 -19.840103
				CHANNELS 3 Xrotation Yrotation Zrotation
				JOINT RightLegRoll
				{
					OFFSET 0.000000 -0.000003 19.904999
					CHANNELS 3 Xrotation Yrotation Zrotation
					JOINT RightFoot
					{
						OFFSET 0.000000 -0.000003 16.567497
						CHANNELS 3 Xrotation Yrotation Zrotation
						JOINT RightToeBase
						{
							OFFSET 0.000000 -0.000002 13.849602
							CHANNELS 3 Xrotation Yrotation Zrotation
							End Site
							{
								OFFSET 0.005871 0.773116 6.707275
							}
						}
					}
				}
			}
		}
	}
	JOINT LeftUpLeg
	{
		OFFSET 5.277740 0.811858 -0.967796
		CHANNELS 3 Xrotation Yrotation Zrotation
		JOINT LeftUpLegRoll
		{
			OFFSET 0.000000 -0.000003 16.021500
			CHANNELS 3 Xrotation Yrotation Zrotation
			JOINT LeftLeg
			{
				OFFSET 0.000000 -0.000003 19.840004
				CHANNELS 3 Xrotation Yrotation Zrotation
				JOINT LeftLegRoll
				{
					OFFSET 0.000000 -0.000003 20.089005
					CHANNELS 3 Xrotation Yrotation Zrotation
					JOINT LeftFoot
					{
						OFFSET 0.000000 -0.000003 16.383499
						CHANNELS 3 Xrotation Yrotation Zrotation
						JOINT LeftToeBase
						{
							OFFSET 0.000000 -0.000002 13.849594
							CHANNELS 3 Xrotation Yrotation Zrotation
							End Site
							{
								OFFSET -0.026310 0.773116 6.707275
							}
						}
					}
				}
			}
		}
	}
}
MOTION
Frames: 6
Frame Time: 0.041667
53.101200 -2.468103 83.467003 -1.062444 -0.458807 0.670040 -2.910047 0.184829 -0.026576 -1.811871 0.386814 -0.042453 -0.166783 0.386265 -0.047273 28.018701 -0.881015 -0.392514 14.508698 -0.030746 -0.401438 -17.080855 -31.368873 -19.876103 36.001729 -47.407752 63.714894 -0.000000 -0.000003 -0.000003 -0.029555 3.639759 -1.990755 0.000002 0.000011 -3.011608 -5.000171 -7.999918 0.000009 -15.784680 27.898604 17.935554 28.118653 50.449297 -59.236373 0.000002 -0.000020 0.000004 10.970245 -3.667553 2.421862 0.000001 -0.000000 3.000003 -5.000174 7.999939 -0.000002 -3.369351 -174.986646 3.811390 179.999991 -0.000005 -1.060997 170.388098 -1.460217 -0.458254 0.000001 0.000002 0.189985 70.625461 6.885433 2.020851 25.456952 -7.355617 0.000011 -2.247645 175.585394 -1.312032 -0.000004 -0.000005 -1.070000 -7.354746 2.002552 0.300725 -0.000001 0.000002 -0.098499 69.573475 -6.887045 -2.101268 25.456953 7.355614 -0.000011 
53.099602 -2.464943 83.464195 -1.059183 -0.458849 0.668250 -2.909954 0.184889 -0.026604 -1.811401 0.387305 -0.042352 -0.166309 0.386755 -0.047202 28.023986 -0.879336 -0.399372 14.516602 -0.030497 -0.408478 -17.074990 -31.374286 -19.867835 36.000336 -47.410443 63.713295 -0.000001 -0.000003 0.000000 -0.029559 3.639760 -1.990750 0.000003 0.000011 -3.011611 -5.000172 -7.999917 0.000012 -15.790168 27.892578 17.943395 28.140994 50.455202 -59.246222 0.000002 -0.000021 0.000003 10.964934 -3.667561 2.421661 -0.000001 -0.000000 2.999998 -5.000174 7.999938 -0.000000 -3.384931 -174.989706 3.803975 179.999991 -0.000005 -1.060996 170.369124 -1.452243 -0.458410 -0.000000 0.000002 0.191168 70.637803 6.885438 2.020887 25.456955 -7.355615 0.000012 -2.251923 175.585408 -1.313623 -0.000004 -0.000005 -1.069850 -7.354915 2.004723 0.300753 -0.000001 0.000002 -0.098674 69.575258 -6.886978 -2.101346 25.456953 7.355614 -0.000011 
53.096802 -2.468532 83.466499 -1.055892 -0.458789 0.666406 -2.909794 0.185029 -0.026632 -1.810801 0.387873 -0.042290 -0.165713 0.387321 -0.047159 28.028376 -0.878134 -0.406101 14.524495 -0.029992 -0.415443 -17.069930 -31.380857 -19.860809 35.999157 -47.411908 63.712134 -0.000001 -0.000003 0.000001 -0.029564 3.639760 -1.990752 0.000003 0.000011 -3.011608 -5.000171 -7.999918 0.000008 -15.796112 27.885026 17.951895 28.164019 50.463193 -59.255866 0.000003 -0.000020 0.000003 10.961928 -3.667568 2.421547 0.000001 0.000001 2.999996 -5.000174 7.999938 0.000000 -3.401798 -174.991796 3.796140 179.999991 -0.000005 -1.060997 170.347910 -1.443289 -0.459435 -0.000000 0.000001 0.192451 70.651525 6.885414 2.020834 25.456952 -7.355615 0.000011 -2.256343 175.584411 -1.315263 -0.000005 -0.000005 -1.069710 -7.355306 2.006972 0.300783 -0.000001 0.000002 -0.098851 69.577040 -6.886944 -2.101328 25.456953 7.355614 -0.000011 
53.100498 -2.460794 83.466301 -1.052524 -0.458619 0.664543 -2.909555 0.185249 -0.026660 -1.810082 0.388517 -0.042278 -0.164990 0.387962 -0.047148 28.031866 -0.877171 -0.412785 14.532003 -0.029567 -0.422344 -17.065906 -31.388472 -19.855213 35.998573 -47.411809 63.711684 -0.000000 -0.000003 0.000001 -0.029567 3.639760 -1.990750 0.000002 0.000011 -3.011610 -5.000171 -7.999918 0.000011 -15.802502 27.875863 17.961015 28.187696 50.473472 -59.265326 0.000002 -0.000021 0.000002 10.961427 -3.667574 2.421540 0.000001 0.000001 3.000002 -5.000174 7.999939 0.000003 -3.419208 -174.994883 3.788239 179.999991 -0.000005 -1.060997 170.325862 -1.434321 -0.459476 -0.000000 0.000002 0.193764 70.665670 6.885387 2.020652 25.456953 -7.355615 0.000011 -2.260923 175.582430 -1.316962 -0.000005 -0.000004 -1.069560 -7.355865 2.009300 0.300817 -0.000001 0.000002 -0.099026 69.578830 -6.886911 -2.101411 25.456950 7.355614 -0.000011 
53.101700 -2.454713 83.471100 -1.049013 -0.458330 0.662690 -2.909215 0.185552 -0.026688 -1.809221 0.389236 -0.042326 -0.164130 0.388679 -0.047177 28.034365 -0.876209 -0.419511 14.539200 -0.029556 -0.429189 -17.063243 -31.397068 -19.851528 35.998908 -47.410122 63.712237 -0.000001 -0.000004 -0.000002 -0.029571 3.639759 -1.990751 0.000003 0.000011 -3.011610 -5.000171 -7.999918 0.000015 -15.809600 27.865340 17.971047 28.211994 50.485750 -59.274513 0.000002 -0.000020 0.000002 10.963530 -3.667579 2.421628 0.000002 0.000001 3.000003 -5.000174 7.999936 -0.000001 -3.436441 -174.996960 3.780385 179.999991 -0.000005 -1.059999 170.304374 -1.426338 -0.460673 0.000000 0.000002 0.195035 70.679487 6.885322 2.020586 25.456953 -7.355614 0.000012 -2.265717 175.581446 -1.318783 -0.000005 -0.000005 -1.069420 -7.356518 2.011717 0.300853 -0.000001 0.000002 -0.099198 69.580599 -6.886845 -2.101490 25.456952 7.355613 -0.000010 
53.103401 -2.457003 83.472694 -1.045313 -0.457915 0.660880 -2.908788 0.185938 -0.026716 -1.808222 0.390031 -0.042444 -0.163128 0.389470 -0.047254 28.035654 -0.875014 -0.426367 14.545904 -0.030294 -0.435991 -17.062111 -31.406832 -19.850191 36.000694 -47.406451 63.714197 -0.000002 -0.000003 0.000000 -0.029575 3.639760 -1.990753 0.000002 0.000011 -3.011607 -5.000171 -7.999918 0.000008 -15.817181 27.853482 17.981991 28.237098 50.499997 -59.283863 0.000002 -0.000020 0.000001 10.968542 -3.667587 2.421833 -0.000001 -0.000000 2.999998 -5.000174 7.999938 -0.000001 -3.452791 -175.000047 3.772929 179.999991 -0.000005 -1.059999 170.284867 -1.418378 -0.460808 0.000000 0.000002 0.196191 70.692157 6.885306 2.020399 25.456953 -7.355613 0.000010 -2.270782 175.579452 -1.320644 -0.000005 -0.000005 -1.069280 -7.357210 2.014243 0.300893 -0.000001 0.000002 -0.099366 69.582388 -6.886812 -2.101473 25.456953 7.355614 -0.000011 
